<?xml version="1.0" encoding="UTF-8" standalone="no"?>
<!DOCTYPE svg PUBLIC "-//W3C//DTD SVG 1.1//EN" "http://www.w3.org/Graphics/SVG/1.1/DTD/svg11.dtd">
<svg version="1.1" xmlns="http://www.w3.org/2000/svg" xmlns:xlink="http://www.w3.org/1999/xlink" preserveAspectRatio="xMidYMid meet" viewBox="0 0 640 640" width="864" height="864"><defs><path d="" id="b6KIhLZuS"></path><path d="M296.58 192.31C299.83 187.84 306.08 186.85 310.55 190.1C324.77 200.43 359.35 225.56 373.57 235.89C378.04 239.14 379.03 245.39 375.78 249.86C367.51 261.25 348.55 287.34 340.27 298.74C337.02 303.21 330.77 304.2 326.3 300.95C312.08 290.62 277.5 265.49 263.28 255.16C258.81 251.91 257.82 245.66 261.07 241.19C269.34 229.8 288.3 203.71 296.58 192.31Z" id="axreU7FmT"></path><path d="M316.03 176.45C320.49 173.2 326.75 174.19 329.99 178.66C340.33 192.88 365.45 227.46 375.78 241.68C379.03 246.15 378.04 252.41 373.57 255.65C362.18 263.93 336.09 282.89 324.69 291.17C320.22 294.41 313.97 293.42 310.72 288.95C300.39 274.73 275.27 240.15 264.93 225.93C261.69 221.46 262.68 215.21 267.15 211.96C278.54 203.68 304.63 184.73 316.03 176.45Z" id="bPvrvNd2V"></path><path d="M340.52 165.16C345.78 163.45 351.42 166.32 353.12 171.58C358.56 188.3 371.77 228.95 377.2 245.66C378.91 250.92 376.04 256.56 370.78 258.27C357.39 262.62 326.72 272.59 313.32 276.94C308.07 278.65 302.43 275.77 300.72 270.52C295.29 253.8 282.08 213.15 276.64 196.43C274.94 191.18 277.81 185.54 283.06 183.83C296.46 179.48 327.13 169.51 340.52 165.16Z" id="b1pAkbu87N"></path><path d="M374.77 170.9C380.29 170.9 384.77 175.38 384.77 180.9C384.77 198.48 384.77 241.22 384.77 258.8C384.77 264.32 380.29 268.8 374.77 268.8C360.68 268.8 328.43 268.8 314.35 268.8C308.82 268.8 304.35 264.32 304.35 258.8C304.35 241.22 304.35 198.48 304.35 180.9C304.35 175.38 308.82 170.9 314.35 170.9C328.43 170.9 360.68 170.9 374.77 170.9Z" id="bOP2P2GEv"></path><path d="M365.94 221.55C365.94 233.36 356.36 242.94 344.56 242.94C332.75 242.94 323.17 233.36 323.17 221.55C323.17 209.75 332.75 200.16 344.56 200.16C356.36 200.16 365.94 209.75 365.94 221.55Z" id="aOMV5GZ0Z"></path><path d="M330.6 194.53C331.23 193.9 332.25 193.9 332.88 194.53C333.1 194.76 332.65 194.31 332.88 194.53C333.51 195.16 333.51 196.18 332.88 196.81C330.33 199.36 323.84 205.85 321.3 208.39C320.67 209.02 319.65 209.02 319.02 208.39C318.79 208.16 319.25 208.62 319.02 208.39C318.39 207.76 318.39 206.74 319.02 206.11C321.57 203.57 328.06 197.08 330.6 194.53Z" id="d5fOYMb4wL"></path><path d="M370.09 206.11C370.72 206.74 370.72 207.76 370.09 208.39C369.86 208.62 370.32 208.16 370.09 208.39C369.46 209.02 368.44 209.02 367.81 208.39C365.27 205.84 358.78 199.35 356.24 196.81C355.61 196.18 355.61 195.16 356.24 194.53C356.46 194.31 356.01 194.76 356.24 194.53C356.87 193.9 357.89 193.9 358.51 194.53C361.06 197.08 367.55 203.57 370.09 206.11Z" id="a2RstENsn"></path><path d="M356.07 215.12C348.08 222.64 343.09 227.33 341.1 229.21C341.06 229.25 340.99 229.25 340.95 229.21C340.02 228.31 337.68 226.04 333.94 222.42" id="a2PEEODaXf"></path></defs><g><g><g><g><use xlink:href="#b6KIhLZuS" opacity="1" fill-opacity="0" stroke="#000000" stroke-width="1" stroke-opacity="1"></use></g></g><g><use xlink:href="#axreU7FmT" opacity="1" fill="#fda17b" fill-opacity="1"></use></g><g><use xlink:href="#bPvrvNd2V" opacity="1" fill="#00b3c1" fill-opacity="1"></use></g><g><use xlink:href="#b1pAkbu87N" opacity="1" fill="#89c6af" fill-opacity="1"></use></g><g><use xlink:href="#bOP2P2GEv" opacity="1" fill="#f5cf78" fill-opacity="1"></use></g><g><g><use xlink:href="#aOMV5GZ0Z" opacity="1" fill-opacity="0" stroke="#ffffff" stroke-width="3" stroke-opacity="1"></use></g></g><g><use xlink:href="#d5fOYMb4wL" opacity="1" fill="#ffffff" fill-opacity="1"></use></g><g><use xlink:href="#a2RstENsn" opacity="1" fill="#ffffff" fill-opacity="1"></use></g><g><g><use xlink:href="#a2PEEODaXf" opacity="1" fill-opacity="0" stroke="#ffffff" stroke-width="3" stroke-opacity="1"></use></g></g></g></g></svg>